<?xml version="1.0" standalone="no"?>
<!DOCTYPE svg PUBLIC "-//W3C//DTD SVG 20010904//EN"
 "http://www.w3.org/TR/2001/REC-SVG-20010904/DTD/svg10.dtd">
<svg version="1.0" xmlns="http://www.w3.org/2000/svg"
 width="738.000000pt" height="738.000000pt" viewBox="0 0 738.000000 738.000000"
 preserveAspectRatio="xMidYMid meet">
<metadata>
Created by potrace 1.14, written by Peter Selinger 2001-2017
</metadata>
<g transform="translate(0.000000,738.000000) scale(0.100000,-0.100000)"
fill="#000000" stroke="none">
<path d="M3449 7376 c-2 -2 -42 -7 -89 -10 -47 -4 -96 -8 -110 -10 -14 -2 -47
-7 -75 -11 -27 -3 -64 -8 -80 -11 -32 -5 -258 -51 -287 -59 -10 -3 -26 -7 -36
-9 -62 -14 -207 -56 -252 -73 -8 -3 -20 -7 -27 -9 -31 -6 -312 -123 -412 -171
-802 -387 -1455 -1078 -1798 -1903 -126 -303 -218 -641 -249 -915 -3 -33 -8
-62 -9 -65 -26 -44 -26 -836 0 -880 1 -3 6 -34 9 -69 4 -36 8 -67 10 -70 2 -3
7 -28 10 -55 4 -27 9 -52 10 -55 2 -3 7 -26 10 -51 7 -50 50 -218 90 -351 110
-373 336 -812 580 -1129 138 -180 156 -201 341 -386 302 -302 613 -526 979
-705 205 -101 377 -168 601 -234 149 -44 405 -98 520 -110 33 -4 71 -8 85 -11
73 -12 208 -18 405 -18 276 -1 390 7 615 45 459 76 876 227 1263 456 294 174
509 343 762 597 613 617 979 1415 1052 2296 14 165 7 620 -11 715 -2 11 -7 47
-10 80 -4 33 -14 92 -21 130 -8 39 -17 86 -20 105 -11 67 -66 276 -101 385
-116 359 -292 710 -508 1012 -234 330 -571 663 -897 890 -494 345 -1111 580
-1674 638 -33 4 -71 9 -85 12 -28 6 -585 14 -591 9z m586 -199 c17 -3 50 -8
75 -11 25 -3 60 -8 78 -10 18 -3 52 -8 75 -11 23 -4 84 -15 136 -26 51 -12
101 -22 111 -24 73 -14 324 -94 453 -145 445 -174 841 -433 1196 -781 278
-272 580 -709 720 -1039 13 -30 34 -80 48 -110 94 -207 205 -631 237 -905 3
-22 9 -69 13 -105 16 -137 7 -638 -13 -745 -2 -11 -6 -40 -9 -65 -8 -67 -19
-129 -49 -275 -62 -301 -222 -703 -397 -1001 -158 -269 -314 -469 -549 -705
-337 -338 -724 -596 -1160 -772 -214 -87 -518 -176 -695 -203 -27 -4 -57 -9
-65 -10 -8 -2 -40 -6 -70 -9 -30 -3 -62 -8 -70 -10 -72 -19 -581 -27 -725 -12
-86 9 -152 17 -185 22 -482 72 -946 243 -1354 498 -694 433 -1224 1112 -1477
1892 -41 125 -101 363 -115 450 -4 28 -8 52 -9 55 -1 3 -5 34 -10 70 -5 36 -9
67 -10 70 -1 3 -5 46 -9 95 -5 50 -10 99 -12 110 -6 27 -5 386 1 455 12 147
23 254 31 290 3 13 7 38 9 55 9 67 47 238 81 360 162 585 479 1123 914 1553
454 449 1019 765 1635 915 113 28 253 54 335 63 30 4 58 8 61 10 3 1 46 6 95
10 49 3 91 8 93 10 6 6 551 -3 586 -9z"/>
<path d="M3700 7082 c-38 -5 -54 -31 -33 -54 9 -10 21 -18 28 -18 7 0 20 -9
30 -20 14 -15 19 -40 21 -107 2 -49 6 -134 8 -190 3 -57 1 -103 -4 -103 -4 0
-10 4 -12 9 -8 24 -316 430 -338 447 -21 16 -42 19 -133 18 -82 0 -111 -4
-123 -15 -21 -22 -9 -44 37 -64 21 -10 40 -25 40 -34 3 -44 7 -124 14 -311 4
-113 8 -225 9 -250 3 -57 -6 -74 -43 -90 -34 -14 -46 -37 -30 -57 17 -20 227
-10 249 13 16 16 15 17 -51 64 -24 18 -23 11 -35 325 -3 99 -8 183 -11 188 -2
4 0 7 5 7 5 0 90 -111 187 -247 242 -337 245 -341 272 -348 28 -7 58 8 73 35
6 11 8 61 5 122 -4 88 -8 200 -19 508 -3 73 0 82 34 105 35 24 44 43 29 61
-11 13 -129 16 -209 6z"/>
<path d="M4178 7043 c-25 -7 -30 -31 -9 -52 39 -39 41 -53 21 -167 -10 -60
-21 -126 -24 -146 -3 -21 -13 -77 -22 -125 -8 -49 -18 -107 -20 -129 -9 -77
-19 -98 -57 -123 -35 -23 -48 -53 -29 -65 5 -3 24 -8 43 -11 227 -41 244 -43
253 -19 4 10 -5 29 -25 51 -21 24 -29 42 -25 57 4 18 15 84 61 356 2 14 7 43
10 65 4 22 8 47 10 55 2 8 7 35 10 60 9 58 19 76 49 84 14 3 30 15 36 25 17
33 -11 47 -131 66 -62 9 -118 18 -123 20 -6 1 -18 1 -28 -2z"/>
<path d="M2780 6969 c-47 -17 -93 -33 -103 -36 -12 -4 -17 -13 -15 -30 2 -19
13 -28 42 -38 21 -8 42 -17 46 -22 4 -4 42 -104 84 -222 79 -218 90 -274 67
-333 -24 -64 -105 -108 -194 -105 -56 2 -62 5 -96 44 -37 42 -46 63 -155 366
l-46 128 18 37 c24 49 22 66 -7 70 -30 5 -251 -75 -268 -96 -17 -21 0 -49 36
-57 16 -3 34 -12 40 -19 5 -6 44 -106 86 -221 43 -116 85 -223 95 -240 53 -86
145 -140 247 -144 95 -4 237 51 300 115 57 59 68 89 68 189 -1 81 -5 102 -42
200 -23 61 -60 163 -83 227 l-43 116 21 34 c15 24 18 38 11 51 -13 22 -9 22
-109 -14z"/>
<path d="M4643 6953 c-19 -7 -16 -38 8 -85 19 -38 20 -51 14 -172 -12 -214
-19 -329 -30 -500 -9 -128 27 -186 116 -186 47 0 3 -40 421 387 138 142 161
162 197 168 44 7 64 25 55 48 -3 8 -52 36 -108 61 -144 64 -176 61 -136 -15
11 -23 18 -48 15 -57 -3 -10 -90 -105 -195 -212 l-190 -195 5 80 c3 44 7 109
10 145 3 36 7 115 11 175 7 134 21 173 64 181 37 8 55 34 37 57 -7 8 -64 37
-127 65 -128 55 -149 62 -167 55z"/>
<path d="M5564 6498 c-3 -5 -3 -31 1 -58 l7 -49 -177 -213 c-219 -263 -217
-261 -265 -253 -49 8 -70 -13 -47 -48 8 -13 95 -90 193 -172 99 -82 193 -162
209 -177 36 -33 58 -42 90 -34 31 8 105 78 105 99 0 21 -38 37 -65 27 -56 -20
-103 3 -234 118 -65 56 -62 79 23 181 37 45 72 81 77 81 15 0 179 -139 180
-153 4 -46 6 -64 7 -74 5 -34 65 11 124 91 39 54 37 85 -7 76 -46 -9 -67 1
-152 72 l-90 74 73 86 c40 47 83 88 95 91 29 8 49 -4 136 -75 73 -61 89 -85
97 -152 8 -72 47 -65 91 15 39 73 44 66 -170 244 -66 55 -129 108 -140 118
-82 75 -147 109 -161 85z"/>
<path d="M1383 6193 c-78 -89 -94 -115 -83 -133 7 -12 16 -12 60 -1 56 14 60
13 152 -71 20 -18 60 -54 90 -79 29 -26 67 -58 83 -73 l30 -26 -50 5 c-27 3
-75 7 -105 10 -30 3 -65 7 -78 10 -13 2 -53 7 -90 11 -36 3 -75 8 -87 10 -11
3 -59 8 -107 11 l-88 6 -75 -79 c-82 -86 -95 -109 -73 -130 12 -12 21 -12 61
3 l46 17 73 -65 c78 -68 83 -73 223 -195 50 -43 111 -99 137 -125 46 -45 47
-47 37 -83 -22 -79 12 -87 76 -18 111 121 119 134 94 159 -8 8 -20 7 -45 -3
-27 -11 -39 -12 -57 -3 -18 10 -169 137 -187 158 -3 3 -39 35 -80 71 -130 113
-125 103 -50 95 36 -4 72 -9 81 -10 9 -2 40 -6 70 -10 30 -3 61 -8 69 -10 8
-2 40 -6 71 -10 31 -3 65 -7 75 -9 11 -2 48 -7 84 -11 36 -4 68 -9 71 -11 3
-2 40 -6 81 -10 69 -6 78 -4 97 15 26 26 27 62 4 88 -10 11 -54 51 -98 89 -44
38 -82 71 -85 74 -3 3 -39 34 -80 70 -99 86 -144 126 -203 180 -48 43 -48 45
-42 89 7 44 -2 60 -31 61 -7 0 -39 -30 -71 -67z"/>
<path d="M3587 6155 c-1 -1 -45 -5 -97 -9 -90 -6 -140 -11 -185 -20 -11 -2
-40 -7 -65 -11 -88 -13 -287 -68 -400 -110 -471 -175 -865 -477 -1163 -892
-223 -310 -366 -670 -431 -1083 -14 -90 -20 -209 -19 -370 3 -428 108 -817
321 -1190 116 -202 232 -351 411 -530 315 -312 692 -527 1116 -635 72 -19 144
-36 160 -38 17 -3 50 -8 75 -12 25 -4 56 -9 70 -11 38 -6 256 -18 330 -18 70
0 249 12 290 19 14 2 43 6 65 9 22 4 51 8 65 11 14 2 37 7 53 10 59 11 80 16
194 50 402 116 755 326 1053 625 58 58 123 127 145 155 22 27 48 59 58 70 38
41 187 273 240 375 133 251 220 529 262 830 22 157 23 502 1 616 -2 10 -7 42
-10 69 -12 90 -37 198 -72 319 -210 717 -739 1303 -1434 1589 -111 46 -291
103 -385 123 -137 29 -209 40 -325 50 -74 6 -318 13 -323 9z m323 -199 c14 -3
50 -8 80 -11 103 -10 290 -54 426 -99 475 -159 898 -486 1176 -911 501 -765
495 -1750 -15 -2510 -91 -136 -168 -228 -297 -355 -296 -292 -666 -497 -1075
-596 -17 -4 -133 -25 -214 -39 -152 -26 -450 -24 -641 5 -640 98 -1216 471
-1573 1021 -359 552 -459 1257 -266 1889 233 765 868 1366 1639 1552 93 22 95
22 160 33 25 4 54 9 64 11 10 2 58 6 105 10 47 4 88 8 90 10 5 5 314 -4 341
-10z"/>
<path d="M3537 5776 c-93 -25 -126 -64 -162 -191 -49 -168 -121 -281 -331
-515 -129 -144 -166 -197 -160 -231 8 -54 38 -90 96 -115 63 -27 222 32 336
124 61 49 62 50 87 33 l26 -17 -18 -29 c-11 -17 -64 -82 -120 -145 -100 -113
-162 -198 -215 -293 -29 -50 -46 -54 -46 -9 0 52 -31 147 -63 195 -53 78 -197
141 -382 166 -68 9 -293 6 -365 -4 -168 -25 -354 -117 -415 -205 -42 -61 -89
-206 -111 -344 -3 -21 -8 -48 -10 -60 -31 -143 -21 -508 17 -625 64 -197 237
-355 434 -397 61 -13 324 -12 429 1 155 20 286 76 371 160 85 84 123 184 150
394 16 132 34 183 98 283 19 31 50 89 67 129 76 176 116 239 151 239 31 0 28
-27 -16 -137 -42 -103 -106 -328 -120 -423 -4 -24 -8 -47 -10 -50 -1 -3 -6
-30 -9 -61 -4 -31 -8 -65 -10 -75 -3 -18 -8 -64 -22 -209 -5 -62 -13 -231 -14
-320 l0 -50 -217 0 c-192 0 -480 -10 -583 -20 -19 -1 -69 -6 -110 -9 -41 -4
-100 -11 -130 -16 -30 -5 -71 -12 -90 -15 -55 -9 -140 -35 -198 -61 -42 -18
-56 -31 -68 -60 -19 -45 -14 -97 15 -156 37 -78 61 -93 149 -94 42 -1 122 7
177 17 55 10 152 27 215 38 63 12 139 24 169 27 30 3 64 8 75 11 12 3 148 7
304 10 l282 4 1 -108 c1 -59 3 -130 4 -158 6 -95 15 -210 19 -240 11 -76 19
-132 22 -150 2 -11 7 -40 10 -65 22 -164 49 -249 99 -308 34 -40 64 -53 126
-54 122 0 161 82 135 292 -4 36 -9 67 -11 70 -2 3 -6 34 -9 70 -4 36 -9 85
-11 110 -11 104 -16 205 -31 685 -9 318 -6 499 11 609 2 11 6 51 10 88 3 37 8
77 10 90 6 37 13 89 20 143 12 90 34 177 91 350 76 230 78 260 23 395 -53 131
-60 187 -30 229 30 42 88 74 201 111 136 44 173 50 395 65 44 3 118 8 165 12
117 10 350 9 495 -1 252 -19 296 -14 331 39 36 55 8 153 -63 214 -74 66 -107
73 -368 76 -261 3 -424 -6 -595 -35 -30 -5 -71 -12 -90 -14 -19 -2 -69 -10
-110 -16 -113 -17 -128 -18 -220 -26 -47 -3 -87 -7 -90 -7 -15 -3 -47 16 -58
34 -24 39 -16 92 31 201 25 58 48 118 51 134 13 65 15 111 4 147 -16 53 -71
114 -111 122 -17 4 -39 8 -47 10 -8 2 -37 -2 -63 -9z m-967 -1361 c109 -12
164 -57 193 -156 11 -36 15 -116 8 -164 0 -6 -18 -11 -38 -11 -21 0 -85 -4
-143 -7 -318 -21 -573 -27 -591 -16 -16 10 -2 112 23 172 38 88 150 167 263
186 51 9 187 7 285 -4z m60 -639 c92 -6 132 -14 141 -28 10 -15 -10 -128 -30
-173 -25 -57 -68 -100 -122 -124 -102 -44 -337 -41 -449 5 -78 33 -138 125
-143 221 l-2 48 115 17 c63 9 133 19 155 22 21 3 80 9 130 12 49 4 92 8 93 9
2 2 9 2 15 0 7 -2 50 -6 97 -9z"/>
<path d="M4918 4795 c-2 -2 -132 -6 -288 -9 -157 -3 -303 -7 -325 -10 -22 -2
-71 -5 -110 -7 -140 -5 -237 -41 -309 -113 -56 -57 -69 -102 -62 -203 7 -88
34 -155 77 -194 53 -48 110 -52 634 -51 242 0 469 4 504 7 126 13 258 70 297
130 41 62 49 182 19 262 -36 93 -172 163 -345 179 -36 3 -70 7 -77 9 -6 2 -13
2 -15 0z m132 -255 c79 -21 57 -99 -29 -101 -20 -1 -52 -2 -71 -4 -97 -6 -516
-18 -672 -19 -165 -1 -178 1 -192 19 -9 11 -16 30 -16 43 0 37 53 52 198 58
70 3 127 6 129 7 8 9 621 6 653 -3z"/>
<path d="M4627 4124 c-1 -1 -81 -5 -177 -8 -96 -4 -193 -9 -215 -11 -22 -2
-73 -6 -114 -10 -144 -11 -214 -38 -280 -105 -161 -166 -85 -441 131 -477 23
-4 59 -6 78 -6 19 1 211 4 426 7 214 3 424 8 465 11 296 18 320 25 394 99 65
64 85 119 80 215 -5 106 -54 200 -123 235 -31 15 -102 32 -182 42 -47 6 -477
13 -483 8z m437 -277 c27 -18 30 -25 18 -43 -14 -20 -69 -33 -167 -39 -55 -3
-120 -8 -145 -11 -25 -2 -185 -6 -357 -8 -369 -5 -421 2 -394 52 18 34 63 42
256 47 284 8 540 17 543 20 2 1 52 2 111 1 84 -1 114 -6 135 -19z"/>
<path d="M4517 3433 c-1 0 -63 -4 -137 -7 -282 -13 -424 -23 -451 -31 -18 -6
-39 -46 -39 -77 0 -27 39 -95 59 -104 49 -19 101 -22 249 -10 l103 8 -7 -43
c-9 -66 -8 -66 -66 -74 -86 -12 -90 -13 -158 -24 -36 -6 -83 -13 -105 -16 -33
-5 -121 -23 -198 -40 -37 -8 -83 -45 -104 -82 -55 -100 12 -202 137 -208 24
-2 80 17 259 84 94 36 212 63 223 53 7 -7 13 -97 9 -129 0 -7 -11 -13 -23 -13
-40 0 -284 -69 -376 -105 -102 -41 -197 -111 -218 -161 -16 -39 -11 -101 11
-145 16 -31 71 -79 89 -79 28 0 120 33 165 59 174 103 291 156 364 166 51 7
46 15 77 -110 27 -111 81 -225 160 -344 70 -104 124 -145 194 -145 60 0 75 9
95 55 33 72 12 189 -59 329 -40 80 -95 253 -86 269 6 9 33 15 116 28 60 8 100
8 190 -1 120 -13 133 -14 167 -4 18 5 42 19 53 31 22 23 114 297 175 518 39
141 40 179 5 237 -55 90 -152 85 -238 -11 -20 -22 -55 -60 -78 -82 l-41 -42
-114 -12 c-63 -6 -127 -14 -144 -16 -118 -16 -116 -16 -105 5 5 10 35 49 65
87 67 83 79 116 56 158 l-17 30 -128 0 c-70 0 -128 -1 -129 -2z m490 -535 c-3
-29 -11 -65 -17 -80 -13 -28 -22 -31 -135 -43 -27 -3 -84 -9 -125 -15 -41 -5
-77 -7 -79 -4 -7 7 -8 143 -2 153 6 8 32 13 151 27 30 3 56 7 57 8 1 1 37 3
79 5 l77 2 -6 -53z"/>
<path d="M6282 5848 c-7 -7 -12 -25 -12 -40 0 -37 -22 -57 -151 -139 -57 -37
-156 -100 -220 -142 -168 -108 -167 -108 -209 -91 -31 14 -36 13 -47 -2 -15
-20 -13 -24 69 -151 32 -50 65 -93 72 -96 21 -8 34 6 39 47 3 21 9 41 14 46
13 12 184 120 193 123 4 1 22 -17 40 -41 39 -54 37 -65 -39 -197 -61 -105 -67
-110 -128 -90 -16 5 -23 2 -28 -14 -5 -16 12 -51 71 -142 42 -67 83 -123 91
-126 24 -9 39 15 40 65 2 40 14 71 65 164 35 62 68 121 73 130 9 16 15 15 65
-10 111 -55 235 -25 298 70 24 37 27 51 27 122 0 95 -10 116 -170 361 -113
173 -123 183 -153 153z m110 -267 c31 -25 75 -107 81 -152 6 -51 -18 -95 -68
-124 -88 -52 -158 -26 -237 89 l-47 69 42 27 c191 124 188 123 229 91z"/>
<path d="M618 5126 c-31 -16 -52 -57 -45 -87 4 -15 120 -140 273 -295 146
-148 270 -277 276 -287 5 -10 12 -31 14 -45 3 -15 9 -31 14 -35 10 -11 50 1
50 14 0 5 16 43 35 85 19 41 35 84 35 95 0 29 -28 34 -58 12 -36 -26 -53 -19
-124 54 l-56 58 52 120 c51 115 54 120 82 118 16 0 54 -2 84 -4 70 -3 88 -12
98 -52 15 -58 42 -42 86 48 67 140 77 170 62 191 -13 17 -15 17 -53 0 -40 -18
-109 -18 -385 -1 -35 3 -121 7 -193 11 -71 3 -151 7 -177 8 -26 2 -57 -2 -70
-8z m375 -180 c21 -2 40 -6 42 -8 5 -5 -66 -168 -74 -168 -3 0 -50 43 -104 94
l-97 95 97 -5 c54 -3 115 -6 136 -8z"/>
<path d="M6624 4826 c-59 -27 -106 -80 -124 -139 -7 -24 -15 -108 -17 -192 -3
-161 -12 -206 -46 -230 -62 -43 -146 0 -172 88 -30 102 -11 192 63 290 57 76
65 93 52 117 -14 27 -54 21 -135 -20 -79 -40 -145 -95 -145 -120 0 -11 9 -28
20 -38 17 -16 20 -28 16 -92 -6 -127 36 -252 111 -325 52 -51 96 -67 174 -67
115 1 207 60 238 154 19 56 21 78 25 220 5 176 20 212 92 212 69 0 121 -94
111 -203 -5 -63 -19 -96 -72 -165 -67 -88 -36 -112 82 -65 41 16 85 36 98 45
30 20 32 54 5 79 -18 16 -20 27 -15 81 17 169 -73 346 -194 382 -59 18 -111
14 -167 -12z"/>
<path d="M560 4447 c-101 -33 -182 -120 -216 -233 -7 -25 -21 -100 -29 -167
-9 -67 -18 -138 -21 -158 -9 -72 -7 -111 7 -120 20 -13 24 -12 56 14 41 35 48
36 163 21 58 -7 125 -16 150 -19 25 -3 61 -8 80 -10 44 -7 91 -13 155 -20 93
-11 100 -14 128 -57 20 -32 52 -37 66 -10 5 9 12 42 16 72 3 30 8 66 10 80 15
94 20 158 20 245 0 90 -3 106 -29 159 -55 112 -152 182 -295 212 -95 19 -184
16 -261 -9z m276 -179 c69 -19 138 -61 171 -105 26 -33 28 -44 28 -121 0 -77
-2 -85 -25 -104 -21 -17 -33 -19 -87 -13 -34 3 -72 8 -85 10 -13 2 -79 11
-148 20 -69 9 -145 18 -170 21 -94 13 -108 31 -95 129 15 127 109 187 280 180
44 -2 103 -10 131 -17z"/>
<path d="M7010 3936 c-25 -41 -34 -43 -240 -51 -74 -2 -199 -7 -277 -11 l-142
-6 -30 32 c-17 19 -36 31 -47 28 -20 -3 -20 -9 -14 -208 4 -101 31 -130 67
-70 9 17 24 32 33 35 19 6 129 13 355 21 289 11 271 13 305 -24 32 -36 42 -39
59 -18 17 20 9 270 -9 291 -19 23 -37 18 -60 -19z"/>
<path d="M805 3549 c-22 -4 -60 -10 -85 -14 -40 -5 -117 -18 -176 -29 -12 -2
-38 -7 -58 -10 -20 -3 -52 -9 -71 -12 -27 -4 -42 0 -68 20 -19 14 -39 26 -45
26 -19 0 -23 -37 -13 -97 6 -32 13 -76 17 -98 3 -22 9 -44 14 -48 14 -16 48 3
60 34 7 16 20 34 30 39 14 7 98 24 225 44 17 2 70 11 119 20 49 9 107 16 130
16 46 0 112 -27 138 -57 22 -24 45 -90 43 -123 -1 -14 -2 -37 -3 -52 -2 -32
-43 -83 -83 -104 -27 -13 -91 -29 -164 -39 -16 -3 -79 -14 -140 -25 -180 -34
-210 -35 -232 -13 -25 25 -60 34 -72 19 -10 -12 -9 -34 9 -151 17 -106 29
-142 47 -149 17 -7 53 19 53 38 1 32 52 48 265 80 233 36 301 61 364 133 109
123 90 378 -35 495 -58 53 -170 77 -269 57z"/>
<path d="M6897 3503 c-16 -16 -4 -52 33 -102 45 -59 52 -104 22 -141 l-18 -22
-129 25 c-72 14 -146 28 -165 32 -19 3 -82 15 -140 26 -58 11 -118 22 -135 24
-31 6 -65 37 -65 60 0 23 -25 36 -43 22 -15 -11 -59 -210 -59 -266 -1 -39 22
-43 59 -10 39 33 33 32 104 19 30 -6 70 -13 89 -16 19 -3 51 -9 70 -14 19 -5
51 -11 70 -14 19 -3 60 -10 90 -16 30 -6 66 -13 80 -15 150 -27 164 -35 155
-89 -6 -32 -33 -61 -104 -108 -46 -31 -54 -64 -19 -77 39 -14 164 -13 175 1
10 13 17 37 28 108 3 19 12 67 20 105 8 39 17 86 20 105 3 19 13 71 21 115 8
44 17 90 20 103 12 63 12 76 3 93 -5 11 -37 27 -75 39 -69 21 -96 24 -107 13z"/>
<path d="M6087 2778 c-18 -28 -97 -213 -97 -227 0 -9 31 -31 44 -31 2 0 11 6
19 14 24 25 42 22 150 -24 l105 -45 136 -180 c112 -149 137 -190 148 -234 22
-96 47 -82 107 58 58 134 53 166 -19 116 -21 -15 -43 -24 -48 -21 -14 8 -187
250 -184 256 1 3 5 5 10 6 11 0 114 15 137 20 11 2 44 6 73 8 29 3 57 8 61 10
11 7 51 -23 51 -39 0 -23 30 -46 47 -37 18 11 123 248 123 280 0 26 -33 30
-65 8 -27 -18 -80 -34 -140 -42 -27 -3 -58 -8 -69 -10 -10 -2 -44 -6 -75 -9
-31 -4 -69 -9 -86 -12 -134 -23 -131 -23 -239 24 -121 54 -124 56 -128 96 -4
41 -39 50 -61 15z"/>
<path d="M940 2681 c-48 -15 -129 -61 -139 -79 -13 -25 -3 -37 48 -53 42 -14
45 -17 83 -103 21 -49 35 -93 31 -97 -23 -22 -199 -90 -220 -84 -17 4 -33 28
-64 93 -52 112 -55 127 -30 189 18 46 19 54 6 67 -32 32 -145 -36 -145 -88 0
-26 204 -490 228 -518 28 -33 57 -19 67 32 7 34 23 49 78 74 34 15 76 34 92
41 17 7 66 30 110 50 80 37 126 57 135 60 3 1 32 14 65 29 101 46 100 46 139
26 40 -22 66 -17 66 11 0 24 -96 238 -116 259 -18 18 -48 2 -50 -26 -3 -48
-16 -62 -87 -94 -39 -18 -93 -43 -119 -55 -56 -27 -51 -31 -102 86 -38 86 -38
87 -21 123 28 58 10 76 -55 57z"/>
<path d="M5255 1659 c-50 -22 -440 -296 -441 -309 0 -8 3 -19 6 -25 4 -5 22
-37 40 -70 18 -33 50 -91 72 -130 21 -38 48 -89 60 -113 14 -27 31 -45 47 -49
27 -7 48 13 108 100 88 128 211 133 290 12 57 -86 56 -173 -2 -224 -57 -50
-117 -50 -184 1 -57 43 -141 5 -141 -65 0 -78 124 -116 256 -79 97 28 225 137
272 232 38 78 38 182 0 256 -29 55 -77 106 -123 130 -117 60 -305 -9 -422
-157 l-32 -41 -35 70 -35 70 170 113 c94 62 174 122 179 133 9 25 -30 134 -51
146 -8 4 -23 4 -34 -1z"/>
<path d="M2062 1558 c-20 -20 -14 -34 38 -79 30 -27 50 -52 50 -65 0 -19 -97
-189 -150 -264 -11 -16 -20 -33 -20 -39 0 -6 -3 -11 -7 -11 -5 0 -16 -18 -27
-40 -29 -61 -68 -102 -96 -102 -14 0 -50 3 -81 7 -39 5 -58 4 -64 -4 -12 -20
3 -57 27 -69 27 -14 58 -33 222 -134 125 -78 154 -89 174 -65 12 15 -5 57 -38
92 -18 20 -23 36 -21 66 0 8 80 143 176 300 96 156 175 290 175 297 0 44 -35
67 -117 77 -72 9 -93 14 -153 30 -67 18 -73 18 -88 3z"/>
<path d="M2967 1224 c-1 -2 -18 -6 -36 -9 -68 -12 -144 -64 -183 -126 -27 -42
-46 -121 -43 -180 5 -150 132 -251 317 -252 37 -1 68 -5 68 -9 0 -16 -75 -90
-115 -114 -48 -27 -166 -70 -222 -79 -63 -10 -83 -43 -40 -66 25 -14 197 -18
267 -7 75 13 204 83 269 146 58 57 123 171 136 237 52 261 -94 446 -363 459
-28 1 -53 1 -55 0z m158 -114 c24 -11 48 -32 55 -48 18 -38 20 -114 5 -172
-26 -99 -76 -147 -141 -136 -16 2 -34 5 -40 5 -6 1 -20 9 -31 19 -96 83 -56
305 62 344 34 10 47 9 90 -12z"/>
<path d="M4139 1200 c-107 -19 -228 -109 -266 -198 -57 -133 -47 -321 25 -471
48 -97 155 -185 252 -206 118 -26 272 17 355 99 120 118 138 361 43 567 -73
158 -235 241 -409 209z m84 -101 c50 -27 101 -123 131 -244 10 -38 20 -79 23
-90 3 -11 7 -70 9 -130 3 -97 1 -115 -17 -153 -32 -65 -79 -82 -139 -51 -123
63 -222 466 -150 614 29 60 89 82 143 54z"/>
</g>
</svg>
